<svg xmlns="http://www.w3.org/2000/svg" xmlns:xlink="http://www.w3.org/1999/xlink" width="182" height="107.33" viewBox="0 0 182 107.33"><defs><clipPath id="a"><rect width="182" height="107.33" fill="none"/></clipPath></defs><g transform="translate(0 0)"><g transform="translate(0 0)" clip-path="url(#a)"><path d="M6.375,8.852A4.776,4.776,0,0,0,9.861,7.581,4.148,4.148,0,0,0,11.14,4.449,4.274,4.274,0,0,0,9.861,1.292,4.726,4.726,0,0,0,6.375.005,4.727,4.727,0,0,0,2.9,1.292,4.235,4.235,0,0,0,1.595,4.449,4.125,4.125,0,0,0,2.919,7.581,4.753,4.753,0,0,0,6.375,8.852" transform="translate(4.418 -0.002)" fill="#054192"/><path d="M10.931,8.9A4.766,4.766,0,0,0,14.41,7.613a4.247,4.247,0,0,0,1.324-3.192,4.228,4.228,0,0,0-1.3-3.12,4.766,4.766,0,0,0-3.5-1.286A4.727,4.727,0,0,0,7.461,1.3a4.228,4.228,0,0,0-1.3,3.12A4.247,4.247,0,0,0,7.483,7.613,4.727,4.727,0,0,0,10.931,8.9" transform="translate(17.072 0.025)" fill="#054192"/><path d="M36.3,14.96a23.482,23.482,0,0,0-2.754-4.512,16.657,16.657,0,0,0-3.757-3.539,17.277,17.277,0,0,0-4.825-2.343,19.463,19.463,0,0,0-5.817-.853,18.891,18.891,0,0,0-5.727.83,16.605,16.605,0,0,0-4.7,2.328A17.6,17.6,0,0,0,5,10.523,21.907,21.907,0,0,0,2.3,15.2a26.8,26.8,0,0,0-1.69,5.772A37.539,37.539,0,0,0,0,27.473V34.89A39.027,39.027,0,0,0,.551,41.07,27.535,27.535,0,0,0,2.09,46.593a22.048,22.048,0,0,0,2.758,4.976,18.666,18.666,0,0,0,3.757,3.757,17.275,17.275,0,0,0,4.8,2.388,18.9,18.9,0,0,0,5.8.841,19.084,19.084,0,0,0,5.576-.751,16.856,16.856,0,0,0,8.733-5.923,22.344,22.344,0,0,0,2.939-4.9,27.265,27.265,0,0,0,1.724-5.7,36.055,36.055,0,0,0,.622-6.4v-7.4a35.59,35.59,0,0,0-.66-6.636A27.147,27.147,0,0,0,36.3,14.96M29.1,34.89a36.842,36.842,0,0,1-.2,3.871,22.059,22.059,0,0,1-.638,3.5A16.7,16.7,0,0,1,26.883,45.9,9.662,9.662,0,0,1,24.8,48.615a7.223,7.223,0,0,1-2.456,1.5,8.951,8.951,0,0,1-3.12.513,8.541,8.541,0,0,1-3.177-.551,7.3,7.3,0,0,1-2.4-1.5A8.984,8.984,0,0,1,11.7,45.842a16.626,16.626,0,0,1-1.249-3.618,23.843,23.843,0,0,1-.57-3.5c-.113-1.234-.166-2.5-.166-3.757V27.451q0-2.02.181-3.931a26.8,26.8,0,0,1,.592-3.591,14.875,14.875,0,0,1,1.339-3.678,9.455,9.455,0,0,1,2.143-2.712,7.077,7.077,0,0,1,2.252-1.3,8.571,8.571,0,0,1,2.939-.46,8.427,8.427,0,0,1,5.429,1.833,9.8,9.8,0,0,1,2.184,2.712,16.3,16.3,0,0,1,1.452,3.6,21.841,21.841,0,0,1,.675,3.591,38,38,0,0,1,.2,3.931Z" transform="translate(0 10.293)" fill="#054192"/><path d="M58.085,33.664h22.02V26H58.085V11.757H83.667V3.9H41.214l-10.861,25.1L19.491,3.9H8.917L25.467,38.18l.075,19.15h9.431l.038-18.787,13.461-27.8V57.33H83.81V49.55H58.085Z" transform="translate(24.723 10.819)" fill="#054192"/><path d="M41.134,38.949,41.617,3.9H31.929l.434,35.047Z" transform="translate(88.526 10.818)" fill="#054192"/><path d="M41.415,16.935a6.256,6.256,0,0,0-8.186,0,5.274,5.274,0,0,0-1.505,3.757A5.12,5.12,0,0,0,33.229,24.4a6.318,6.318,0,0,0,8.186,0,5.048,5.048,0,0,0,1.5-3.712,5.177,5.177,0,0,0-1.5-3.757" transform="translate(87.954 42.724)" fill="#054192"/><path d="M71.9,18.165H42.355a4.133,4.133,0,1,1,0-8.266H71.9a4.133,4.133,0,1,1,0,8.266" transform="translate(105.968 27.445)" fill="#054192"/><path d="M42.285,23.16a4.134,4.134,0,0,1-1.879-7.817L64.743,2.973A4.134,4.134,0,1,1,68.5,10.338L44.186,22.708a4.116,4.116,0,0,1-1.9.453" transform="translate(105.773 6.989)" fill="#054192"/><path d="M66.654,34.633a4.076,4.076,0,0,1-1.871-.453L40.446,21.811A4.134,4.134,0,0,1,44.2,14.446l24.322,12.37a4.133,4.133,0,0,1-1.871,7.817Z" transform="translate(105.885 38.799)" fill="#054192"/><path d="M1.532,23.212H3.037l.068,2.022a4.815,4.815,0,0,1,.751-.909,5.061,5.061,0,0,1,2.256-1.211,5.781,5.781,0,0,1,1.441-.181A5.134,5.134,0,0,1,11.831,25a7.215,7.215,0,0,1,1.139,2.46,11.712,11.712,0,0,1,.392,2.961V30.7A10.746,10.746,0,0,1,13,33.5a7.977,7.977,0,0,1-1.053,2.392,5.42,5.42,0,0,1-1.8,1.652,4.986,4.986,0,0,1-2.562.634A6.3,6.3,0,0,1,6.135,38a5.6,5.6,0,0,1-1.317-.5,4.825,4.825,0,0,1-.909-.592,5.044,5.044,0,0,1-.751-.751v7.424H1.532Zm9.922,4.908a6.48,6.48,0,0,0-.879-2.037A4.413,4.413,0,0,0,9.19,24.842a3.949,3.949,0,0,0-2.007-.472,4.31,4.31,0,0,0-1.313.2,4.335,4.335,0,0,0-2.03,1.418,4.655,4.655,0,0,0-.668,1.136v7.172a4.02,4.02,0,0,0,.66,1.022,3.6,3.6,0,0,0,.917.751,4.418,4.418,0,0,0,1.166.517,4.828,4.828,0,0,0,1.313.174,3.854,3.854,0,0,0,2.06-.509,4.51,4.51,0,0,0,1.392-1.332,6.088,6.088,0,0,0,.811-1.984,10.808,10.808,0,0,0,.264-2.256v-.283a9.622,9.622,0,0,0-.3-2.271" transform="translate(4.248 63.575)" fill="#054192"/><path d="M16.781,36.808c-.053-.37-.083-.755-.106-1.128a5.451,5.451,0,0,1-.985,1.015,6.257,6.257,0,0,1-1.222.751,6.676,6.676,0,0,1-1.437.494,7.072,7.072,0,0,1-1.569.174,5.862,5.862,0,0,1-1.909-.306,4.761,4.761,0,0,1-1.543-.838,3.758,3.758,0,0,1-1.411-3,3.975,3.975,0,0,1,.562-2.158,4.519,4.519,0,0,1,1.505-1.445,6.947,6.947,0,0,1,2.188-.788,12.982,12.982,0,0,1,2.622-.257h3.184V27.668a3.283,3.283,0,0,0-.321-1.456,3.015,3.015,0,0,0-.856-1.053A3.867,3.867,0,0,0,14.2,24.51a5.757,5.757,0,0,0-3.1,0,4.094,4.094,0,0,0-1.26.589,2.97,2.97,0,0,0-.9.924,2.476,2.476,0,0,0-.362,1.249H6.946a3.643,3.643,0,0,1,.5-1.732,4.689,4.689,0,0,1,1.234-1.366,6.065,6.065,0,0,1,1.8-.894,7.206,7.206,0,0,1,2.2-.332,7.77,7.77,0,0,1,2.184.3,5.455,5.455,0,0,1,1.784.887,4.44,4.44,0,0,1,1.192,1.5,4.877,4.877,0,0,1,.445,2.09v7.1a11.172,11.172,0,0,0,.143,1.5,14.087,14.087,0,0,0,.321,1.422v.091H17.03a5.539,5.539,0,0,1-.249-1.037m-3.508-.34a5.571,5.571,0,0,0,1.422-.585,4.926,4.926,0,0,0,1.154-.917,4.314,4.314,0,0,0,.811-1.188V30.561h-2.95a13.8,13.8,0,0,0-2.3.2,4.977,4.977,0,0,0-1.849.683,3.154,3.154,0,0,0-.985.962,2.407,2.407,0,0,0-.355,1.4A2.594,2.594,0,0,0,8.486,35a2.477,2.477,0,0,0,.751.9,3.386,3.386,0,0,0,1.09.57,4.289,4.289,0,0,0,1.347.2,6.369,6.369,0,0,0,1.6-.2" transform="translate(18.292 63.624)" fill="#054192"/><path d="M19.665,36.552a4.209,4.209,0,0,0,1.324-.7,3.545,3.545,0,0,0,1.358-2.475h1.505a4.391,4.391,0,0,1-.551,1.932,5.26,5.26,0,0,1-1.26,1.505,6.073,6.073,0,0,1-1.815,1.007,6.409,6.409,0,0,1-2.131.366,6.08,6.08,0,0,1-2.811-.615,5.9,5.9,0,0,1-1.954-1.652,6.914,6.914,0,0,1-1.2-2.331,9.985,9.985,0,0,1-.407-2.75v-.57a10.012,10.012,0,0,1,.407-2.754,7.108,7.108,0,0,1,1.2-2.35,5.8,5.8,0,0,1,1.984-1.615,6.131,6.131,0,0,1,2.811-.619,6.464,6.464,0,0,1,2.252.392,5.5,5.5,0,0,1,1.811,1.083A5.076,5.076,0,0,1,23.4,26.06a5.381,5.381,0,0,1,.453,2.06H22.348a4.17,4.17,0,0,0-.389-1.505,3.969,3.969,0,0,0-.887-1.215,4.528,4.528,0,0,0-1.324-.755,4.592,4.592,0,0,0-1.622-.283,4.3,4.3,0,0,0-2.188.517,4.6,4.6,0,0,0-1.505,1.347,5.879,5.879,0,0,0-.819,1.894,9.235,9.235,0,0,0-.268,2.158v.57a9.388,9.388,0,0,0,.268,2.173,5.739,5.739,0,0,0,.841,1.864,4.231,4.231,0,0,0,1.46,1.358,4.457,4.457,0,0,0,2.211.513,5.066,5.066,0,0,0,1.539-.2" transform="translate(32.517 63.579)" fill="#054192"/><path d="M18.715,36.649v5.568h-1.63V21.37h1.63V34.748l1.75-1.713,5.976-5.5h2.1l-6.56,6.179,7.206,8.5H27.109l-6.3-7.409Z" transform="translate(47.37 59.249)" fill="#054192"/><path d="M32.268,36.847c-.053-.37-.083-.755-.106-1.128a5.452,5.452,0,0,1-.985,1.015,6.257,6.257,0,0,1-1.222.751,6.676,6.676,0,0,1-1.437.494,7.071,7.071,0,0,1-1.569.174,5.862,5.862,0,0,1-1.909-.306,4.8,4.8,0,0,1-1.551-.853,3.757,3.757,0,0,1-1.411-3,3.975,3.975,0,0,1,.562-2.158,4.519,4.519,0,0,1,1.505-1.445,6.977,6.977,0,0,1,2.188-.8,12.981,12.981,0,0,1,2.622-.257H32.14V27.676a3.294,3.294,0,0,0-.321-1.456,3.015,3.015,0,0,0-.856-1.053,3.939,3.939,0,0,0-1.286-.649,5.411,5.411,0,0,0-1.592-.223,5.483,5.483,0,0,0-1.505.2,4.094,4.094,0,0,0-1.26.589,3.053,3.053,0,0,0-.9.924,2.476,2.476,0,0,0-.362,1.249h-1.63a3.643,3.643,0,0,1,.5-1.732,4.689,4.689,0,0,1,1.234-1.366,6.02,6.02,0,0,1,1.8-.894,7.207,7.207,0,0,1,2.2-.332,7.77,7.77,0,0,1,2.184.3,5.455,5.455,0,0,1,1.784.887,4.44,4.44,0,0,1,1.192,1.5,4.877,4.877,0,0,1,.445,2.09v7.1a11.171,11.171,0,0,0,.143,1.5,14.085,14.085,0,0,0,.321,1.422v.143H32.479a6.485,6.485,0,0,1-.211-1.037m-3.508-.34a5.57,5.57,0,0,0,1.422-.585,4.926,4.926,0,0,0,1.154-.917,4.547,4.547,0,0,0,.811-1.188V30.6H29.2a13.806,13.806,0,0,0-2.3.2,4.977,4.977,0,0,0-1.849.683,3.154,3.154,0,0,0-.985.962,2.407,2.407,0,0,0-.355,1.4,2.594,2.594,0,0,0,.264,1.188,2.477,2.477,0,0,0,.751.9,3.386,3.386,0,0,0,1.09.57,4.289,4.289,0,0,0,1.347.2,6.369,6.369,0,0,0,1.6-.2" transform="translate(61.209 63.585)" fill="#054192"/><path d="M27.576,27.659A7.571,7.571,0,0,1,28.628,25.3a5.461,5.461,0,0,1,1.811-1.713,5.111,5.111,0,0,1,2.637-.656,5.586,5.586,0,0,1,1.5.2,4.717,4.717,0,0,1,1.309.573,4.765,4.765,0,0,1,.871.683,4.88,4.88,0,0,1,.713.864l.068-2.045h1.505v14.43a7.047,7.047,0,0,1-.415,2.482,5.543,5.543,0,0,1-1.181,1.916,5,5,0,0,1-1.841,1.26,6.551,6.551,0,0,1-3.923.272,6.659,6.659,0,0,1-1.5-.558A6.446,6.446,0,0,1,29,42.263a4.98,4.98,0,0,1-.992-1.037l.909-.992a7.529,7.529,0,0,0,.819.845,5.209,5.209,0,0,0,.879.607,4.655,4.655,0,0,0,2.414.668,4.8,4.8,0,0,0,1.856-.336,3.889,3.889,0,0,0,1.377-.97A4.27,4.27,0,0,0,37.1,39.58a5.8,5.8,0,0,0,.29-1.9V36.064a4.216,4.216,0,0,1-.751.826,5.106,5.106,0,0,1-.932.615,5.568,5.568,0,0,1-1.286.483,5.922,5.922,0,0,1-1.411.174,5.1,5.1,0,0,1-2.531-.619,5.454,5.454,0,0,1-1.792-1.63,7.175,7.175,0,0,1-1.124-2.407,11.09,11.09,0,0,1-.37-2.818v-.283a10.915,10.915,0,0,1,.385-2.746m1.554,5.263a6.043,6.043,0,0,0,.811,1.969,3.872,3.872,0,0,0,3.422,1.818,4.54,4.54,0,0,0,1.313-.181,4.274,4.274,0,0,0,1.173-.509,4.382,4.382,0,0,0,.924-.826,4.017,4.017,0,0,0,.66-1.105v-6.9a4.765,4.765,0,0,0-.638-1.151,4.348,4.348,0,0,0-.909-.894,4.152,4.152,0,0,0-2.494-.8,3.928,3.928,0,0,0-2.165.562,4.348,4.348,0,0,0-1.385,1.437,6.134,6.134,0,0,0-.751,1.916,9.969,9.969,0,0,0-.234,2.143v.283a10.836,10.836,0,0,0,.219,2.264Z" transform="translate(75.389 63.576)" fill="#054192"/><path d="M39.4,26.87V40.108h5.006v1.441H32.582V40.1h5.2V28.322h-5.2V26.87Zm-2.03-4.508a1.056,1.056,0,0,1,.234-.415,1.2,1.2,0,0,1,.381-.245,1.664,1.664,0,0,1,1.083,0,1.216,1.216,0,0,1,.385.245,1.127,1.127,0,0,1,.234.407,1.514,1.514,0,0,1,.075.5,1.317,1.317,0,0,1-.294.845,1.433,1.433,0,0,1-1.879,0,1.347,1.347,0,0,1-.287-.845,1.87,1.87,0,0,1,.068-.5Z" transform="translate(90.336 59.917)" fill="#054192"/><path d="M37.64,23.221h1.5l.083,2.848a6.434,6.434,0,0,1,.8-1.181,5.441,5.441,0,0,1,1.034-.939,5.512,5.512,0,0,1,1.505-.751,5.341,5.341,0,0,1,1.705-.272,6.015,6.015,0,0,1,2.143.37,4.1,4.1,0,0,1,1.562,1.075,4.641,4.641,0,0,1,.954,1.743,7.934,7.934,0,0,1,.324,2.362v9.416h-1.63V28.5a6.775,6.775,0,0,0-.234-1.784,3.428,3.428,0,0,0-.69-1.3,3.025,3.025,0,0,0-1.173-.8,4.372,4.372,0,0,0-1.66-.257,4.275,4.275,0,0,0-1.6.294,4.895,4.895,0,0,0-2.335,1.864,5.434,5.434,0,0,0-.664,1.343V37.9H37.64Z" transform="translate(104.359 63.566)" fill="#054192"/><path d="M43.046,27.659A7.553,7.553,0,0,1,44.091,25.3a5.449,5.449,0,0,1,1.818-1.713,5.111,5.111,0,0,1,2.637-.656,5.586,5.586,0,0,1,1.5.2,5,5,0,0,1,2.188,1.256,5.274,5.274,0,0,1,.751.864l.068-2.045H54.56v14.43a7.237,7.237,0,0,1-.415,2.482,5.543,5.543,0,0,1-1.181,1.916,5,5,0,0,1-1.841,1.26,6.551,6.551,0,0,1-3.923.272,6.483,6.483,0,0,1-1.5-.558,6.25,6.25,0,0,1-1.181-.751,4.979,4.979,0,0,1-.992-1.037l.909-.992a7.528,7.528,0,0,0,.819.845,5.209,5.209,0,0,0,.879.607,4.751,4.751,0,0,0,4.271.373,3.828,3.828,0,0,0,1.377-.97,4.28,4.28,0,0,0,.834-1.464,5.819,5.819,0,0,0,.29-1.9V36.11a4.216,4.216,0,0,1-.751.826,5.55,5.55,0,0,1-2.256,1.1,5.983,5.983,0,0,1-1.418.174,5.074,5.074,0,0,1-2.524-.619,5.454,5.454,0,0,1-1.792-1.63,6.864,6.864,0,0,1-1.124-2.407,10.743,10.743,0,0,1-.37-2.818v-.283a11.087,11.087,0,0,1,.377-2.792M44.6,32.922a5.819,5.819,0,0,0,.811,1.969,3.872,3.872,0,0,0,3.422,1.818,4.558,4.558,0,0,0,1.313-.181,3.955,3.955,0,0,0,2.1-1.335,4.017,4.017,0,0,0,.66-1.105v-6.9a4.765,4.765,0,0,0-.638-1.151,4.348,4.348,0,0,0-.909-.894,4.152,4.152,0,0,0-2.494-.8A3.9,3.9,0,0,0,46.7,24.9a4.348,4.348,0,0,0-1.385,1.437,6.134,6.134,0,0,0-.751,1.916,9.97,9.97,0,0,0-.234,2.143v.283a10.888,10.888,0,0,0,.272,2.264Z" transform="translate(118.303 63.576)" fill="#054192"/></g></g></svg>